<svg xmlns="http://www.w3.org/2000/svg" xmlns:xlink="http://www.w3.org/1999/xlink" width="500" zoomAndPan="magnify" viewBox="0 0 375 374.999991" height="500" preserveAspectRatio="xMidYMid meet" version="1.0"><defs><g/><clipPath id="id1"><path d="M 140.398438 98.617188 L 198 98.617188 L 198 185 L 140.398438 185 Z M 140.398438 98.617188 " clip-rule="nonzero"/></clipPath><clipPath id="id2"><path d="M 163 132 L 226 132 L 226 202.867188 L 163 202.867188 Z M 163 132 " clip-rule="nonzero"/></clipPath><clipPath id="id3"><path d="M 226 111 L 234.898438 111 L 234.898438 119 L 226 119 Z M 226 111 " clip-rule="nonzero"/></clipPath></defs><g clip-path="url(#id1)"><path fill="#004aad" d="M 184.65625 114.597656 L 163.402344 114.597656 C 163.308594 114.027344 163.261719 113.449219 163.261719 112.851562 C 163.261719 106.9375 168.078125 102.136719 174.03125 102.136719 C 179.976562 102.136719 184.800781 106.9375 184.800781 112.851562 C 184.800781 113.445312 184.753906 114.027344 184.65625 114.597656 Z M 151.191406 184.714844 L 160.316406 184.714844 L 160.316406 170.929688 C 163.953125 173.621094 167.65625 175.664062 171.425781 177.058594 C 175.191406 178.445312 178.808594 179.140625 182.273438 179.140625 C 185.574219 179.140625 188.128906 178.488281 189.953125 177.183594 C 191.769531 175.878906 192.683594 174.132812 192.683594 171.941406 L 192.683594 171.6875 C 192.683594 170.425781 192.277344 169.332031 191.476562 168.402344 C 190.671875 167.480469 189.574219 166.65625 188.171875 165.941406 C 186.777344 165.226562 185.171875 164.597656 183.347656 164.050781 L 177.703125 162.34375 C 175.246094 161.585938 172.773438 160.746094 170.277344 159.820312 C 167.785156 158.894531 165.539062 157.695312 163.550781 156.222656 C 161.566406 154.75 159.9375 152.9375 158.667969 150.792969 C 157.394531 148.648438 156.761719 145.976562 156.761719 142.777344 L 156.761719 142.523438 C 156.761719 139.40625 157.375 136.589844 158.601562 134.0625 C 159.828125 131.535156 161.519531 129.390625 163.679688 127.625 C 165.835938 125.859375 168.375 124.507812 171.296875 123.582031 C 174.21875 122.65625 177.328125 122.195312 180.625 122.195312 C 184.855469 122.195312 189.132812 122.867188 193.449219 124.214844 C 194.695312 124.605469 195.914062 125.035156 197.101562 125.511719 L 197.101562 114.597656 L 188.191406 114.597656 C 188.261719 114.027344 188.300781 113.445312 188.300781 112.851562 C 188.300781 105.015625 181.917969 98.667969 174.035156 98.667969 C 166.160156 98.667969 159.777344 105.019531 159.777344 112.851562 C 159.777344 113.445312 159.8125 114.023438 159.882812 114.597656 L 147.839844 114.597656 L 140.40625 184.714844 L 151.195312 184.714844 Z M 151.191406 184.714844 " fill-opacity="1" fill-rule="evenodd"/></g><g clip-path="url(#id2)"><path fill="#7ed957" d="M 199.152344 140.628906 C 195.9375 138.691406 192.683594 137.15625 189.378906 136.019531 C 186.078125 134.886719 183.035156 134.316406 180.246094 134.316406 C 177.28125 134.316406 174.976562 134.945312 173.328125 136.207031 C 171.679688 137.46875 170.851562 139.070312 170.851562 141.003906 L 170.851562 141.257812 C 170.851562 142.4375 171.273438 143.46875 172.121094 144.351562 C 172.964844 145.238281 174.085938 146.039062 175.480469 146.753906 C 176.878906 147.46875 178.484375 148.140625 180.304688 148.769531 C 182.125 149.402344 184.007812 150.015625 185.957031 150.601562 C 188.414062 151.359375 190.863281 152.246094 193.316406 153.257812 C 195.773438 154.265625 197.992188 155.507812 199.980469 156.980469 C 201.96875 158.453125 203.597656 160.242188 204.867188 162.347656 C 206.132812 164.449219 206.769531 167.019531 206.769531 170.046875 L 206.769531 170.300781 C 206.769531 173.835938 206.132812 176.90625 204.867188 179.519531 C 203.597656 182.125 201.839844 184.292969 199.59375 186.023438 C 197.355469 187.75 194.710938 189.054688 191.664062 189.9375 C 188.613281 190.820312 185.359375 191.265625 181.886719 191.265625 C 177.066406 191.265625 172.175781 190.425781 167.230469 188.742188 C 165.824219 188.261719 164.445312 187.71875 163.097656 187.113281 L 163.097656 202.820312 L 225.34375 202.820312 L 217.757812 132.015625 L 199.148438 132.015625 L 199.148438 140.636719 Z M 199.152344 140.628906 " fill-opacity="1" fill-rule="evenodd"/></g><path fill="#004aad" d="M 209.339844 118.164062 L 216.800781 118.292969 L 215.820312 110.878906 L 208.140625 110.765625 Z M 209.339844 118.164062 " fill-opacity="1" fill-rule="evenodd"/><path fill="#7ed957" d="M 217.308594 118.730469 L 218.617188 130.242188 L 230.550781 130.019531 L 228.84375 118.40625 Z M 217.308594 118.730469 " fill-opacity="1" fill-rule="evenodd"/><g clip-path="url(#id3)"><path fill="#7ed957" d="M 226.691406 111.328125 L 227.503906 118.457031 L 234.898438 118.320312 L 233.839844 111.128906 Z M 226.691406 111.328125 " fill-opacity="1" fill-rule="evenodd"/></g><path fill="#004aad" d="M 218.746094 103.160156 L 219.558594 110.296875 L 226.949219 110.160156 L 225.894531 102.960938 Z M 218.746094 103.160156 " fill-opacity="1" fill-rule="evenodd"/><g fill="#000000" fill-opacity="1"><g transform="translate(112.99436, 243.705922)"><g><path d="M 17.875 -20.859375 L 12.0625 -20.859375 L 12.0625 -23.078125 C 12.0625 -23.316406 11.976562 -23.519531 11.8125 -23.6875 C 11.65625 -23.863281 11.460938 -23.953125 11.234375 -23.953125 L 8.828125 -23.953125 C 8.597656 -23.953125 8.398438 -23.863281 8.234375 -23.6875 C 8.078125 -23.519531 8 -23.316406 8 -23.078125 L 8 -18.0625 C 8 -17.820312 8.078125 -17.613281 8.234375 -17.4375 C 8.398438 -17.269531 8.597656 -17.1875 8.828125 -17.1875 L 12.765625 -17.1875 C 16.378906 -17.125 18.1875 -15.195312 18.1875 -11.40625 L 18.1875 -5.328125 C 18.1875 -1.484375 16.378906 0.4375 12.765625 0.4375 L 7.609375 0.4375 C 3.992188 0.4375 2.1875 -1.484375 2.1875 -5.328125 L 2.1875 -8.265625 L 8 -8.265625 L 8 -5.109375 C 8 -4.878906 8.078125 -4.675781 8.234375 -4.5 C 8.398438 -4.320312 8.597656 -4.234375 8.828125 -4.234375 L 11.546875 -4.234375 C 11.773438 -4.234375 11.96875 -4.320312 12.125 -4.5 C 12.289062 -4.675781 12.375 -4.878906 12.375 -5.109375 L 12.375 -10.671875 C 12.375 -10.898438 12.289062 -11.101562 12.125 -11.28125 C 11.96875 -11.457031 11.773438 -11.546875 11.546875 -11.546875 L 7.609375 -11.546875 C 3.992188 -11.546875 2.1875 -13.46875 2.1875 -17.3125 L 2.1875 -22.953125 C 2.1875 -26.796875 3.992188 -28.71875 7.609375 -28.71875 L 12.453125 -28.71875 C 16.066406 -28.71875 17.875 -26.796875 17.875 -22.953125 Z M 17.875 -20.859375 "/></g></g></g><g fill="#000000" fill-opacity="1"><g transform="translate(133.013944, 243.705922)"><g><path d="M 13.203125 -28.28125 C 16.816406 -28.28125 18.625 -26.359375 18.625 -22.515625 L 18.625 -16.875 C 18.625 -13.03125 16.816406 -11.109375 13.203125 -11.109375 L 8.265625 -11.109375 L 8.265625 0 L 2.140625 0 L 2.140625 -28.28125 Z M 12.5 -16.171875 L 12.5 -23.21875 C 12.5 -23.445312 12.414062 -23.648438 12.25 -23.828125 C 12.09375 -24.003906 11.898438 -24.09375 11.671875 -24.09375 L 8.265625 -24.09375 L 8.265625 -15.296875 L 11.671875 -15.296875 C 11.898438 -15.296875 12.09375 -15.382812 12.25 -15.5625 C 12.414062 -15.738281 12.5 -15.941406 12.5 -16.171875 Z M 12.5 -16.171875 "/></g></g></g><g fill="#000000" fill-opacity="1"><g transform="translate(152.508999, 243.705922)"><g><path d="M 13.421875 -28.71875 C 17.035156 -28.71875 18.84375 -26.796875 18.84375 -22.953125 L 18.84375 0 L 12.71875 0 L 12.71875 -9.484375 L 8.3125 -9.484375 L 8.3125 0 L 2.1875 0 L 2.1875 -22.953125 C 2.1875 -26.796875 3.992188 -28.71875 7.609375 -28.71875 Z M 8.3125 -14.203125 L 12.71875 -14.203125 L 12.71875 -23.703125 C 12.71875 -23.929688 12.632812 -24.128906 12.46875 -24.296875 C 12.3125 -24.472656 12.117188 -24.5625 11.890625 -24.5625 L 9.140625 -24.5625 C 8.898438 -24.5625 8.703125 -24.472656 8.546875 -24.296875 C 8.390625 -24.128906 8.3125 -23.929688 8.3125 -23.703125 Z M 8.3125 -14.203125 "/></g></g></g><g fill="#000000" fill-opacity="1"><g transform="translate(173.708777, 243.705922)"><g><path d="M 8.3125 -11.578125 L 8.3125 0 L 2.1875 0 L 2.1875 -28.28125 L 13.078125 -28.28125 C 16.691406 -28.28125 18.5 -26.359375 18.5 -22.515625 L 18.5 -19.234375 C 18.5 -16.898438 17.664062 -15.414062 16 -14.78125 C 17.457031 -14.25 18.1875 -13.050781 18.1875 -11.1875 L 18.1875 0 L 12.0625 0 L 12.0625 -10.71875 C 12.0625 -11.289062 11.785156 -11.578125 11.234375 -11.578125 Z M 8.3125 -24.125 L 8.3125 -15.875 L 11.546875 -15.875 C 11.773438 -15.875 11.96875 -15.957031 12.125 -16.125 C 12.289062 -16.300781 12.375 -16.507812 12.375 -16.75 L 12.375 -23.265625 C 12.375 -23.492188 12.289062 -23.691406 12.125 -23.859375 C 11.96875 -24.035156 11.773438 -24.125 11.546875 -24.125 Z M 8.3125 -24.125 "/></g></g></g><g fill="#000000" fill-opacity="1"><g transform="translate(193.94692, 243.705922)"><g><path d="M 19.796875 -28.28125 L 15 -15.296875 L 20.71875 0 L 14.46875 0 L 10.28125 -11.1875 L 8.3125 -11.1875 L 8.3125 0 L 2.1875 0 L 2.1875 -28.28125 L 8.3125 -28.28125 L 8.3125 -16.4375 L 9.796875 -16.4375 L 14.203125 -28.28125 Z M 19.796875 -28.28125 "/></g></g></g><g fill="#000000" fill-opacity="1"><g transform="translate(214.578453, 243.705922)"><g><path d="M 2.578125 -2.703125 C 2.578125 -3.578125 2.882812 -4.320312 3.5 -4.9375 C 4.113281 -5.550781 4.851562 -5.859375 5.71875 -5.859375 C 6.59375 -5.859375 7.335938 -5.550781 7.953125 -4.9375 C 8.566406 -4.320312 8.875 -3.578125 8.875 -2.703125 C 8.875 -1.835938 8.566406 -1.097656 7.953125 -0.484375 C 7.335938 0.128906 6.59375 0.4375 5.71875 0.4375 C 4.851562 0.4375 4.113281 0.128906 3.5 -0.484375 C 2.882812 -1.097656 2.578125 -1.835938 2.578125 -2.703125 Z M 2.578125 -2.703125 "/></g></g></g><g fill="#000000" fill-opacity="1"><g transform="translate(225.681018, 243.705922)"><g><path d="M 8.3125 -5.15625 L 15 -5.15625 L 15 0 L 2.1875 0 L 2.1875 -28.28125 L 8.3125 -28.28125 Z M 8.3125 -5.15625 "/></g></g></g><g fill="#000000" fill-opacity="1"><g transform="translate(241.373224, 243.705922)"><g><path d="M 19.796875 -28.28125 L 15 -15.296875 L 20.71875 0 L 14.46875 0 L 10.28125 -11.1875 L 8.3125 -11.1875 L 8.3125 0 L 2.1875 0 L 2.1875 -28.28125 L 8.3125 -28.28125 L 8.3125 -16.4375 L 9.796875 -16.4375 L 14.203125 -28.28125 Z M 19.796875 -28.28125 "/></g></g></g></svg>